<svg width="40" height="40" viewBox="0 0 40 40" fill="none" xmlns="http://www.w3.org/2000/svg">
<circle cx="20" cy="20" r="20" fill="#191046"/>
<g clip-path="url(#clip0_1_116)">
<path d="M28.3333 19.2333V20C28.3323 21.797 27.7504 23.5455 26.6744 24.9848C25.5985 26.4241 24.0861 27.477 22.3628 27.9866C20.6395 28.4961 18.7977 28.4349 17.112 27.8121C15.4264 27.1894 13.9872 26.0384 13.0091 24.5309C12.031 23.0233 11.5665 21.24 11.6847 19.4469C11.803 17.6538 12.4977 15.9469 13.6652 14.5809C14.8328 13.2148 16.4106 12.2628 18.1635 11.8668C19.9163 11.4707 21.7502 11.6519 23.3917 12.3833" stroke="white" stroke-width="2" stroke-linecap="round" stroke-linejoin="round"/>
<path d="M28.3333 13.3334L20 21.675L17.5 19.175" stroke="white" stroke-width="2" stroke-linecap="round" stroke-linejoin="round"/>
</g>
<defs>
<clipPath id="clip0_1_116">
<rect width="20" height="20" fill="white" transform="translate(10 10)"/>
</clipPath>
</defs>
</svg>
